<svg width="54" height="55" viewBox="0 0 54 55" fill="none" xmlns="http://www.w3.org/2000/svg">
<path d="M30.6689 48.6383C38.6342 47.2707 45.1162 41.0704 47.4143 33.9183C50.9299 22.9869 46.224 12.8593 36.4827 7.18571C36.428 7.15471 36.3663 7.13836 36.3036 7.13832C36.241 7.13827 36.1796 7.15453 36.1258 7.18545C36.0719 7.21637 36.0275 7.26087 35.9969 7.31445C35.9663 7.36803 35.9507 7.4288 35.9517 7.49065L35.9883 25.5557C35.9883 25.9746 35.7838 26.1902 35.3749 26.2025L28.49 26.5075C28.4072 26.5112 28.3245 26.4977 28.2469 26.4678C28.1693 26.4379 28.0984 26.3923 28.0385 26.3335C27.9786 26.2748 27.9309 26.2043 27.8984 26.1262C27.8658 26.0481 27.8491 25.964 27.8491 25.8791V19.7157C27.8491 19.4789 27.9018 19.2452 28.0034 19.0315C28.105 18.8179 28.2529 18.6298 28.4363 18.481C28.6197 18.3322 28.834 18.2265 29.0634 18.1715C29.2929 18.1166 29.5318 18.1138 29.7626 18.1634C30.6598 18.3543 31.3495 18.3697 31.8317 18.2096C32.3017 18.0494 32.5275 17.5381 32.5092 16.6756C32.3932 11.4148 32.3749 6.28939 32.4543 1.29955C32.4566 1.15779 32.4916 1.01852 32.5564 0.892731C32.6212 0.766943 32.7141 0.658082 32.8278 0.574743C32.9414 0.491404 33.0727 0.435867 33.2113 0.412516C33.3498 0.389166 33.4919 0.39864 33.6262 0.440193C48.165 4.89408 57.1373 19.1059 52.9808 34.251C47.5058 54.1549 22.365 61.4086 7.86277 46.3837C-6.75846 31.2478 -0.120792 5.3561 20.598 0.541836C20.6985 0.519335 20.8028 0.519939 20.9029 0.543602C21.003 0.567265 21.0964 0.613365 21.1758 0.678398C21.2553 0.74343 21.3187 0.825684 21.3614 0.918907C21.404 1.01213 21.4248 1.11387 21.422 1.21639L21.1473 17.3872C21.1448 17.5124 21.1675 17.6369 21.2141 17.753C21.2607 17.8691 21.3302 17.9745 21.4184 18.0626C21.5066 18.1508 21.6117 18.2199 21.7272 18.2658C21.8427 18.3117 21.9662 18.3335 22.0903 18.3297L25.1391 18.228C25.2329 18.2255 25.3263 18.2415 25.4138 18.275C25.5014 18.3085 25.5815 18.3588 25.6495 18.4232C25.7176 18.4876 25.7722 18.5647 25.8103 18.6501C25.8483 18.7355 25.8692 18.8276 25.8715 18.9211L26.0729 25.722C26.0766 25.8165 26.0611 25.9108 26.0274 25.9992C25.9936 26.0876 25.9423 26.1683 25.8764 26.2365C25.8106 26.3047 25.7316 26.3589 25.6442 26.3959C25.5569 26.433 25.4629 26.4521 25.368 26.452H18.3915C18.0314 26.452 17.8513 26.2734 17.8513 25.9161L17.7415 7.71242C17.7415 7.30584 17.5675 7.20111 17.2196 7.39824C6.23311 13.5801 1.92087 26.6738 8.12826 37.6514C10.9481 42.6474 15.6266 46.3005 22.1636 48.6106C22.3407 48.6744 22.5305 48.6942 22.7168 48.6683C22.9032 48.6425 23.0806 48.5717 23.2341 48.4621C23.3877 48.3524 23.5128 48.2071 23.599 48.0383C23.6851 47.8696 23.7298 47.6823 23.7291 47.4925V36.6258C23.7291 36.446 23.658 36.2734 23.5312 36.1455C23.4044 36.0175 23.2321 35.9444 23.0516 35.942L18.4007 35.8865C18.3153 35.8853 18.231 35.8674 18.1526 35.8337C18.0742 35.8001 18.0032 35.7514 17.9437 35.6905C17.8842 35.6296 17.8374 35.5576 17.8058 35.4787C17.7742 35.3997 17.7586 35.3154 17.7598 35.2304L17.8239 28.0968C17.8263 27.9382 17.8907 27.7868 18.0035 27.6747C18.1163 27.5626 18.2686 27.4985 18.4281 27.4962L24.8369 27.4408C25.1146 27.4383 25.382 27.5477 25.5809 27.7449C25.7798 27.9422 25.8941 28.2115 25.899 28.4942L26.0088 35.674C26.0088 35.9266 26.1309 36.0159 26.3751 35.942C26.4666 35.9112 26.5948 35.9235 26.7596 35.9789C26.8776 36.0184 27.0033 36.0294 27.1262 36.0111C27.2491 35.9928 27.3659 35.9456 27.4668 35.8735C27.5678 35.8014 27.6501 35.7063 27.707 35.5961C27.7638 35.486 27.7937 35.3638 27.7942 35.2397L27.8765 28.2262C27.8789 28.075 27.9384 27.9307 28.0427 27.8238C28.1469 27.7168 28.2876 27.6557 28.435 27.6533L35.4756 27.5054C35.738 27.4993 35.8754 27.6317 35.8876 27.9028L36.1622 35.0918C36.1805 35.5231 35.973 35.751 35.5396 35.7756L30.614 35.9974C30.4043 36.0046 30.2059 36.096 30.0619 36.2517C29.9179 36.4074 29.8399 36.6149 29.845 36.829L30.0739 48.1393C30.0861 48.5398 30.2844 48.7061 30.6689 48.6383Z" fill="#0F7866"/>
</svg>
